<?xml version="1.0" encoding="utf-8"?>
<!-- Generator: Adobe Illustrator 25.2.1, SVG Export Plug-In . SVG Version: 6.00 Build 0)  -->
<svg version="1.1" id="Camada_1" xmlns="http://www.w3.org/2000/svg" xmlns:xlink="http://www.w3.org/1999/xlink" x="0px" y="0px"
	 viewBox="0 0 5.94 5.94" style="enable-background:new 0 0 5.94 5.94;" xml:space="preserve">
<style type="text/css">
	.st0{fill:none;stroke:#000000;stroke-width:0.25;stroke-miterlimit:10;}
	.st1{fill:#252525;}
</style>
<path class="st0" d="M-15.64-0.65"/>
<path class="st1" d="M2.97,0C1.33,0,0,1.33,0,2.97s1.33,2.97,2.97,2.97c1.64,0,2.97-1.33,2.97-2.97S4.61,0,2.97,0z M4.32,4.53
	c-0.07,0.07-0.19,0.07-0.27,0L3.58,4.05c-0.34-0.34-0.88-0.34-1.22,0L1.88,4.53c-0.07,0.07-0.19,0.07-0.27,0
	c-0.6-0.6-0.6-1.57,0-2.17L2.97,1l1.22,1.22l0.13,0.13C4.92,2.95,4.92,3.93,4.32,4.53z"/>
</svg>
